# xmcd CD database file
#
# Track frame offsets:
#	150
#	13673
#	26878
#	39727
#	53059
#	65341
#	76441
#	91265
#	104819
#	117266
#	129984
#	142429
#	154855
#	166241
#	175527
#	188710
#	203299
#	216418
#	228977
#	239450
#	250921
#
# Disc length: 3536 seconds
#
# Revision: 0
# Processed by: cddbd v1.5.2PL0 Copyright (c) Steve Scherf et al.
# Submitted via: CDex 1.70beta2
#
DISCID=250dce15
DTITLE=Helen Humes - Knockin' Myself Out 1927-1951
DYEAR=1900
DGENRE=Blues
TTITLE0=A Worried Woman's Blues
TTITLE1=Do What You Did Last Night
TTITLE2=Jubilee
TTITLE3=Sub Deb Blues
TTITLE4=Someday Sweetheart
TTITLE5=It's Square But It Rocks
TTITLE6=Fortune Tellin' Man
TTITLE7=He May Be Your Man
TTITLE8=Be-Baba-Leba
TTITLE9=See See Rider
TTITLE10=Be Ba Be Le Ba Boogie
TTITLE11=Jet Propelled Papa
TTITLE12=They Raided The Joint
TTITLE13=Flippity Flop Flop
TTITLE14=Today I Sing the Blues
TTITLE15=Married Man Blues
TTITLE16=This Love of Mine
TTITLE17=Helen's Advice
TTITLE18=Knockin' Myself Out
TTITLE19=Airplane Blues
TTITLE20=Livin' My Life My Way
EXTD=
EXTT0=
EXTT1=
EXTT2=
EXTT3=
EXTT4=
EXTT5=
EXTT6=
EXTT7=
EXTT8=
EXTT9=
EXTT10=
EXTT11=
EXTT12=
EXTT13=
EXTT14=
EXTT15=
EXTT16=
EXTT17=
EXTT18=
EXTT19=
EXTT20=
PLAYORDER=
